# xmcd
# 
# Track frame offsets:
#     150
#     3817
#     15127
#     20714
#     35667
#     44327
#     49111
#     54016
#     74988
#     85146
#     98328
#     111039
#     134840
#     138021
#     156248
#     160041
#     174729
#     176187
#     190344
#     208996
#     211301
#     218741
#     237523
#     238975
#     251396
#     260738
#     263798
#     285855
#     291925
#     302767
# 
# Disc length: 4086
# 
# Revision: 1
# Processed by: cddbd v1.5.2PL0 Copyright (c) Steve Scherf et al.
# Submitted via: BonkEnc v1.0.5
# 
DISCID=b40ff41e
DTITLE=Various Artist - Swingin' Ockers
DYEAR=0
DGENRE=Country
TTITLE0=Naked Poets, The - Naked Poets Intro
TTITLE1=Naked Poets, The - Marco - The Night Club Open
TTITLE2=Naked Poets, The - Intro
TTITLE3=Naked Poets, The - Ray - The Dungarooba Dance
TTITLE4=Naked Poets, The - Cows on Clover
TTITLE5=Naked Poets, The - Marco - Ray
TTITLE6=Naked Poets, The - Intro
TTITLE7=Naked Poets, The - The Dead Truth
TTITLE8=Naked Poets, The - Bobby - Cars
TTITLE9=Naked Poets, The - The Volvo Driver
TTITLE10=Naked Poets, The - Murray - Intro
TTITLE11=Naked Poets, The - The Hog Whisperer
TTITLE12=Naked Poets, The - Pat - Intro
TTITLE13=Naked Poets, The - Knockin' On Heaven's Door
TTITLE14=Naked Poets, The - Shirley - Intro
TTITLE15=Naked Poets, The - Breast Is Best
TTITLE16=Naked Poets, The - Link
TTITLE17=Naked Poets, The - Ray - In The Wars
TTITLE18=Naked Poets, The - Warm Spot In Bed
TTITLE19=Naked Poets, The - Link
TTITLE20=Naked Poets, The - Shirley - Intro
TTITLE21=Naked Poets, The - The Vasectomy
TTITLE22=Naked Poets, The - Link
TTITLE23=Naked Poets, The - Pat - Intro
TTITLE24=Naked Poets, The - The Man That Should Have Handled My Divorce
TTITLE25=Naked Poets, The - Murray - Intro
TTITLE26=Naked Poets, The - Wave Of Disbelief
TTITLE27=Naked Poets, The - Marco - Intro
TTITLE28=Naked Poets, The - Slim, You Done Us Proud
TTITLE29=Unknown artist - Outro
EXTD=
EXTT0=
EXTT1=
EXTT2=
EXTT3=
EXTT4=
EXTT5=
EXTT6=
EXTT7=
EXTT8=
EXTT9=
EXTT10=
EXTT11=
EXTT12=
EXTT13=
EXTT14=
EXTT15=
EXTT16=
EXTT17=
EXTT18=
EXTT19=
EXTT20=
EXTT21=
EXTT22=
EXTT23=
EXTT24=
EXTT25=
EXTT26=
EXTT27=
EXTT28=
EXTT29=
PLAYORDER=
